<?xml version="1.0" standalone="no"?>
<!DOCTYPE svg PUBLIC "-//W3C//DTD SVG 20010904//EN"
 "http://www.w3.org/TR/2001/REC-SVG-20010904/DTD/svg10.dtd">
<svg version="1.0" xmlns="http://www.w3.org/2000/svg"
 width="1189.000000pt" height="1189.000000pt" viewBox="0 0 1189.000000 1189.000000"
 preserveAspectRatio="xMidYMid meet">
<metadata>
Created by potrace 1.14, written by Peter Selinger 2001-2017
</metadata>
<g transform="translate(0.000000,1189.000000) scale(0.100000,-0.100000)"
fill="#000000" stroke="none">
<path d="M10033 8876 c-149 -149 -573 -570 -941 -936 l-669 -665 0 -2293 c0
-1658 3 -2292 11 -2293 6 0 431 -1 944 -2 615 -1 932 1 933 8 4 39 3 6455 -1
6454 -3 -1 -127 -123 -277 -273z"/>
<path d="M9529 9133 c-2 -5 -103 -81 -224 -168 -121 -87 -236 -171 -255 -186
-19 -14 -170 -124 -335 -243 -165 -119 -473 -342 -685 -496 -212 -155 -439
-320 -505 -367 -66 -48 -151 -110 -190 -138 -70 -52 -606 -441 -1405 -1020
-234 -169 -497 -361 -585 -425 -88 -64 -259 -188 -380 -275 -121 -88 -233
-169 -250 -182 -16 -13 -34 -27 -40 -31 -5 -4 -32 -23 -60 -42 -27 -19 -54
-39 -60 -43 -5 -4 -53 -39 -105 -77 -52 -38 -106 -78 -119 -87 -13 -10 -43
-31 -67 -48 -24 -16 -89 -64 -146 -106 -87 -64 -288 -210 -1137 -826 l-74 -53
-46 37 c-25 21 -48 40 -51 43 -3 3 -59 49 -125 102 -66 53 -183 147 -260 210
-415 337 -532 432 -760 617 -137 111 -259 210 -270 219 -97 82 -437 353 -439
351 -2 -2 31 -56 73 -119 42 -64 105 -161 141 -215 35 -55 110 -170 165 -255
94 -143 315 -481 509 -780 44 -68 122 -186 171 -262 182 -279 389 -597 481
-738 51 -80 98 -152 104 -160 22 -33 242 -370 339 -520 76 -117 107 -157 116
-150 24 20 385 378 2664 2640 535 531 1109 1100 1276 1265 167 165 729 723
1250 1240 521 517 1025 1018 1122 1113 96 95 173 175 170 178 -3 3 -7 1 -8 -3z"/>
<path d="M7588 6448 c-152 -150 -517 -512 -810 -803 l-533 -531 1 -1209 c1
-666 2 -1212 3 -1215 1 -6 1610 -5 1616 2 3 2 4 910 3 2017 l-3 2012 -277
-273z"/>
<path d="M5223 4102 c-834 -825 -1422 -1412 -1415 -1413 35 -4 1866 -3 1873 2
5 3 8 385 7 936 l-3 932 -462 -457z"/>
</g>
</svg>
